<?xml version="1.0" encoding="UTF-8"?>
<svg id="Layer_2" data-name="Layer 2" xmlns="http://www.w3.org/2000/svg" viewBox="0 0 426.39 421.72">
  <defs>
    <style>
      .cls-1 {
        fill: #00d0bc;
      }

      .cls-2 {
        fill: #fff;
      }

      .cls-3 {
        fill: #2f2f3a;
      }
    </style>
  </defs>
  <g id="Layer_1-2" data-name="Layer 1">
    <g>
      <path class="cls-2" d="M145.8,151.95l-1.77-7.63,263.58-57.33c3.99,13.33,6.91,27.03,8.68,40.82,8.69,67.7-9.5,134.73-51.22,188.74-40.23,52.08-97.69,86.05-162.43,96.21l-56.83-260.8Z"/>
      <path class="cls-3" d="M401.96,96.4c2.85,10.65,4.99,21.51,6.39,32.42,4.26,33.15,1.89,66.13-7.02,98.03-8.61,30.82-22.94,59.35-42.6,84.8s-43.64,46.52-71.29,62.64c-24.42,14.24-50.81,24.06-78.62,29.27l-55.17-253.16,248.31-54.01m11.08-18.78l-278.64,60.61,3.61,15.53,58.39,267.96c144.36-18.53,246.35-150.58,227.82-294.94-2.15-16.71-5.89-33.18-11.18-49.17h0Z"/>
    </g>
    <g>
      <path class="cls-1" d="M8,278.35V8.77c6.57-.51,13.19-.77,19.76-.77,7.36,0,14.8,.32,22.13,.96,68,5.91,129.62,37.95,173.52,90.21,42.33,50.39,63.29,113.76,59.44,179.18H8Z"/>
      <path class="cls-3" d="M27.76,16c7.13,0,14.34,.31,21.44,.93,33.3,2.89,65.02,12.22,94.3,27.72,28.28,14.97,53.11,35.05,73.79,59.67,20.68,24.62,36.17,52.54,46.04,82.98,8.71,26.89,12.69,54.76,11.87,83.05H16V16.28c3.92-.19,7.85-.28,11.76-.28M27.76,0C18.49,0,9.23,.49,0,1.47V286.35H290.29C302.9,141.36,195.58,13.6,50.58,.99c-7.59-.66-15.21-.99-22.83-.99h0Z"/>
    </g>
  </g>
</svg>